<svg width="40" height="40" xmlns="http://www.w3.org/2000/svg">
  <path d="M32.9144026 0c-.2411687.0033965-.4721469.1086957-.6317939.2887226-.3362774.132473-.7099183.2004078-.9544835.43818-.4110052.3906244-.7608695.8695652-1.1379078 1.41644-.7472826 1.090353-1.5862774 2.4524452-2.7853261 3.8009513-2.3947009 2.693614-6.1413043 5.3600539-13.4918478 5.3600539-.033967 0-.0645383 0-.0985052.0033965H4.3478261c-2.3879078 0-4.3410322 1.9565218-4.3410322 4.3444296V20c0 1.8444296 1.1718748 3.4205165 2.8057061 4.0455165.0475548.0543478.1019026.1019018.1630435.1426626.285326.2004079 1.0427991 1.5625 1.6644026 3.8009513.618206 2.2418479 1.25 5.3430705 1.9735052 9.1202444.139266.7269026.3804348 1.4572017.944293 2.02106C8.1216035 39.6976904 8.9605983 40 9.9524462 40h2.9008148c.8016304 0 1.528533-.1562496 2.0652174-.6521739.5400817-.492527.7336956-1.2228261.7336956-1.9565218 0-1.5285321-.9103261-2.5815217-1.9191574-3.5869565.159647.159647-.0611417-.1358695-.16644-.6385869-.1052991-.5061139-.2004078-1.2364131-.278533-2.1501357-.1426626-1.6440217-.2139948-3.9572009-.2309783-6.6711956h.7065218c.0883156.0135869.1766304.0135869.264946.0033965h.0305705c7.3811139 0 11.0937495 2.8600548 13.4748643 5.7676635 1.1888583 1.4538043 2.0210592 2.9279887 2.7649452 4.0998634.3702444.5876366.7133157 1.1005435 1.1243209 1.5217392.4110052.4211956.9544835.7846469 1.6202444.7846469h.0645382c.3396739 0 .6827444-.1800269.8967392-.3940217.2105973-.2173913.3464669-.4653531.465353-.7608696.2445652-.5910321.4313861-1.4130435.6012226-2.6902174.2683426-2.007473.4687504-5.1936139.5434783-10.0679347h.4313861c2.0040765 0 3.6582878-1.5217392 3.8451086-3.5020383.0441574-.1052983.0679348-.2207878.0679348-.3362765 0-2.1501366-1.7357339-3.9877722-3.9130434-3.9877722h-.4313861c-.0781244-5.3498644-.3226896-8.8349183-.6521739-10.95788-.1970105-1.2805713-.4076087-2.1059783-.672554-2.6970113-.132473-.2921191-.2751356-.5366844-.4891304-.7472826C33.5869565.1732339 33.257473 0 32.9144026 0zm-.2072017 1.868207c.1528539.3396739.3566582 1.0394017.5400817 2.221467.3668478 2.3980982.6657609 6.7187503.6657609 14.1711956 0 7.4558426-.2445652 11.7832878-.5672557 14.1847826-.1562495 1.1820652-.3362765 1.875-.4755435 2.2180704-.0577443-.0305704-.0713313-.0101896-.2038043-.1426626-.2377713-.2445652-.5502713-.6827443-.9001357-1.236413-.7031252-1.110734-1.5862773-2.680027-2.8872278-4.2697009-2.5237774-3.0808426-6.7119565-6.1956522-14.0998643-6.389267v-9.6025808c7.2384513-.2139948 11.39606-3.0774461 13.9266304-5.923913 1.3145383-1.4809783 2.2112774-2.9415766 2.9211957-3.9707888.3532608-.512907.6623643-.9171191.9001356-1.1447008.1086957-.1052992.1222826-.0815218.180027-.1154887zM4.3478261 13.0400817h8.6990487v9.5720105h-.7065218c-.0577443-.0101896-.1188852-.0169835-.1800269-.0169835-.0509513.0033965-.1052991.0067939-.1528531.0169835H4.347826c-1.4538043 0-2.6154886-1.1582879-2.6154886-2.6120922v-4.3478261c0-1.4538043 1.1616843-2.6120922 2.6154887-2.6120922zm31.2873643 3.4816574h.4110053c1.1854617 0 2.173913 1.0394026 2.173913 2.2486418 0 1.2092391-.9375 2.0991843-2.173913 2.0991843h-.4177992c.0101905-.8661687.0237774-1.6406252.0237774-2.6086956 0-.64538-.0135869-1.1413044-.0169835-1.7391305zM5.2241852 24.3444296h6.0937496c.0135869 2.7479617.0883156 5.0951087.2343748 6.8172556.0815217.95788.1834243 1.7391305.3125 2.3573365.1290765.618207.1766304 1.0529896.6385869 1.5149461.9646739.9612765 1.409647 1.4809783 1.409647 2.3573365 0 .4619566-.0883148.6012227-.1698365.6759514-.0815218.0747278-.319294.1936139-.8899461.1936139H9.9524461c-.6793478 0-.9578809-.1494566-1.1616852-.3532609-.2004079-.2038044-.3634513-.5672557-.4687496-1.1243209-.723506-3.7907608-1.3586956-6.9123635-2.007473-9.2561139-.3600548-1.2941574-.6793479-2.3505435-1.090353-3.1827443z" fill="#000" fill-rule="nonzero"/>
</svg>
