<svg width="52" height="39" xmlns="http://www.w3.org/2000/svg">
  <path d="M27.5444079 0c-4.5743213 0-7.9178662 1.80808-9.6858553 4.4901316-.3648234.549239-.6374385 1.1265417-.8659539 1.7319079l-.256579-.513158c-.1683794-.3447774-.5131579-.569284-.8980263-.5773026-3.5520143 0-6.2060033 1.4432566-7.6011513 3.5921053-1.2748761 1.9604233-1.3510483 4.4259869-.5452303 6.7351974-.0641447.1042357-.2004518.1603618-.256579.2886513-.1924341.4289682-.2966688.9701897-.2245065 1.6036184v.0320724c.116262.9341075.352796 1.6036184.7376645 2.1167763.1643706.216489.4249594.216489.6414474.3527961.1523442.7617192.3688322 1.5194287.6735197 2.1488486.1804068.3768509.372841.7015834.5773026.9942435.0681536.1002259.1844167.1683804.256579.2565789 0 .785773-.0280636 1.4913651-.0962171 2.4054276-.1844156.4690582-.6334288.8819902-1.475329 1.3149671-.8619451.4409956-2.0165504.8499178-3.2072368 1.3791119-1.1906864.5291941-2.4615538 1.1706414-3.4638158 2.2129934-1.002261 1.042352-1.711863 2.5016447-1.828125 4.3618421-.0160362.2846425.08419.5612665.276624.7657281.196444.2084704.4650492.3247324.7496918.3247324h6.3824013c-.156353.5853213-.2806327 1.2147412-.3207237 1.8922698-.0160362.2846425.0841897.5612664.276624.765728C7.5873771 38.8837379 7.8559824 39 8.140625 39h35.0871711c.2846425 0 .5532488-.1162621.7496918-.3247325.1924342-.2044616.2926601-.4810855.2766239-.765728-.0440997-.7176195-.1804068-1.3710933-.352796-1.9884869h6.4144737c.2846425 0 .5532488-.116262.7496918-.3247324.1924343-.2044616.2926601-.4810856.276624-.7657281-.1162621-1.8561886-.8338816-3.3194901-1.828125-4.3618421-.9942435-1.042352-2.221011-1.6837993-3.3996711-2.2129934-1.178659-.5291941-2.3212379-.9381163-3.1751645-1.3791119-.8138366-.4209495-1.2468135-.8539265-1.4432565-1.3149671-.0681536-.8298728-.0962171-1.5675372-.0962171-2.4054276.0681535-.0881985.1884254-.1603618.2565789-.2565789.2044616-.2886514.3688322-.6214024.5452303-.9942435.2846425-.6053662.4931129-1.3269945.609375-2.0526315.2084704-.1322983.4530219-.1443257.609375-.3527961.3848684-.5131579.6214024-1.1826688.7376644-2.1167763.0721634-.5652753.0080186-1.0944693-.1603618-1.5394737-.0481086-.1242807-.2245066-.2004518-.2886513-.3207237.2245066-.5251853.4810855-1.022307.5452302-1.6677631.0922084-.9581623.0160362-2.0325866-.2565789-3.0789474s-.7456821-2.084704-1.5715461-2.8865132c-.6655011-.649465-1.6036184-1.0303246-2.6620065-1.1866776l-.4169408-.962171c-.1643707-.3688323-.5291941-.6053663-.9300987-.609375-1.4192018 0-2.9306129.1403168-4.3297697.5773026-.3648235-.8098268-.845909-1.5795636-1.5074014-2.2129934-.8779813-.845909-2.1127675-1.3510483-3.5279605-1.5074014L28.4745066.609375C28.3101359.2405428 27.9453125.0040088 27.5444079 0zm-.6735197 2.1167763l.5452302 1.1866777c.1643707.3688322.5291941.6053662.9300987.609375 1.2748772 0 2.1408311.4049133 2.8223684 1.0583881.6815384.6534748 1.1666327 1.5835735 1.4432566 2.6299342.2766239 1.0463608.3527961 2.1889397.256579 3.1430921-.0962172.9541535-.4209496 1.7238903-.609375 1.9564145-.196443.2485614-.2645966.5732938-.1924343.8779813.0761722.3086963.2886514.5652753.5773027.6935647-.0160362-.0080175 0-.0080175.0320723.0641448.0561272.1322982.1162621.4289682.0962171.8018092-.0040087.0320724.0040088.0320724 0 .0641447-.1403168.8499178-.3808596 1.3550581-.5452302 1.5715461-.0841897.1122533-.1443257.1483344-.1603619.1603618-.4850943.040091-.8699627.4169408-.9300986.8980263-.0841898.7657281-.3808597 1.7639803-.7376645 2.5337171-.176398.3848685-.3888772.7096009-.5452303.9300987-.1202708.1643707-.2405427.256579-.2245066.256579-.3447774.1804068-.5532478.5412215-.5452302.9300987 0 1.335012-.0080176 2.4054276.0962171 3.9769736.0080186.1002259.0280636.196443.0641447.2886514.5492391 1.4432565 1.7880351 2.3132193 3.1430921 2.9827302 1.3550581.669511 2.8865132 1.1706415 4.3297698 1.7960527 1.4432565.6254111 2.7862872 1.3791118 3.7524671 2.3733552.7496918.7697369 1.2067226 1.7880351 1.4753289 3.046875H9.4235197c.2686064-1.2588399.7256371-2.2771381 1.475329-3.046875.9661798-.9942434 2.3092105-1.7479441 3.7524671-2.3733552 1.4432566-.6254112 2.9747127-1.1265417 4.3297697-1.7960527 1.3550581-.6695109 2.5938531-1.5394737 3.1430921-2.9827302.0360812-.0922084.0561272-.1884255.0641448-.2886514.1042357-1.4753289.0962171-2.6419616.0962171-3.9769736.0080186-.3888772-.2004518-.7496919-.5452303-.9300987 0 0-.0080176-.0120274-.0320724-.0320724-.0080175-.0040088-.0200449.0040088-.0320723 0-.0481086-.0400899-.1162621-.1242807-.1924342-.2245066-.1643707-.2164879-.3888772-.5532478-.5773027-.9300987-.3768498-.7496918-.6855471-1.6998355-.7697368-2.5016447-.0481086-.4490131-.3888772-.8138366-.8338816-.8980263-.1002259-.020045-.6254112.0040088-.8018092-1.7639803-.0721623-.7897818.3006787-1.022307.2565789-.9942434.4289682-.2726151.5933389-.8178454.3848685-1.2828947-.6574836-1.5114101-.865954-3.0709288-.6414474-4.522204.2325252-.2605877.3207237-.6254112.2245066-.962171.1924342-.6374386.4650493-1.2347862.8338816-1.7960527 1.2788859-1.9363695 3.6843135-3.3555713 7.3125-3.5279605zm10.9046052 5.1636513l.3207237.7055921c.1523443.3808597.5211765.6334298.9300987.6414474.9140625 0 1.4833475.276624 1.9564145.7376645.4730679.4610405.8218541 1.1465877 1.0263158 1.9243421.2044616.7777554.2605877 1.6236634.1924342 2.3412829-.0681536.7176195-.3127051 1.3029397-.4169408 1.4432566-.1804068.2325251-.2485604.529194-.1924342.8178454.0521173.2886513.2285153.5412214.4810855.6895559.0360811.0922083.0641447.2926601.0320724.5452302-.0881985.7055921-.2445516 1.0503706-.3207237 1.1546053-.4810856.0601359-.8579354.4450044-.8980263.9300987-.0360812.5291941-.2806328 1.2668585-.5452303 1.828125-.1322983.2806337-.2686063.5051403-.3848684.6735197-.0881985.1242807-.1683794.2204978-.1603619.2245066-.2766239.1884254-.4450043.5011305-.4490131.8338816 0 1.1305515-.0120274 2.0005142.0962171 3.1751645.0120274.0881995.0320723.1723892.0641447.2565789.4369858 1.2067226 1.4232116 1.9604233 2.4695724 2.5016447 1.0463607.5412215 2.2250208.9260899 3.3034539 1.4111842 1.0784332.4850944 2.0566404 1.0583882 2.7582237 1.7960527.4891041.5131579.8138366 1.1626238 1.0263158 1.9564145H43.0353618c-.3207236-.5251853-.6815373-.9902347-1.0904605-1.4111843-1.2668585-1.3029397-2.8464222-2.1207851-4.3939145-2.790296-1.5474912-.669511-3.0709287-1.1866776-4.2335526-1.7639803-1.1225329-.5572576-1.7920438-1.1505964-2.0847039-1.828125-.0761722-1.2307774-.0962171-2.1528574-.0962171-3.2393092.1082445-.1242807.2846425-.216488.3848684-.352796.2605877-.3648235.5171667-.7737457.7376645-1.2508224.3848684-.8338816.6133837-1.8040702.7697368-2.7582237.2806337-.1683794.6173936-.1603618.8338816-.4490131.4490131-.5973477.7577094-1.4232117.9300987-2.5657895.0120274-.020045.0240547-.0440998.0320723-.0641448.0641448-.7055921-.0360811-1.335012-.2565789-1.8601973-.0561262-.1322983-.2445516-.1643707-.3207237-.2886513.3327511-.6735198.5532489-1.4312292.6414474-2.3092106.1042357-1.0263158.0681535-2.1448399-.1603619-3.2713815.9220811-.2525702 2.004523-.3447775 3.046875-.3848685zM15.2606908 7.3125l.3848684.7376645c.1443257.3086963.432977.5251853.7697369.5773026-.1363071 1.4913651.0962171 3.0388574.6414473 4.522204-.3888772.5332028-.7015833 1.2468135-.609375 2.2450657.1804068 1.7920439.982216 2.6419616 1.7639803 3.1110198.1643706.982216.4610405 1.9764594.8659539 2.790296.236534.473068.4971217.8940176.7697369 1.2508224.1002259.1322983.2766239.2044616.3848684.3207237 0 1.0864517-.020045 2.0606502-.0962171 3.2072368-.2926601.6775286-.9621711 1.2708674-2.084704 1.828125-1.1626228.5773027-2.6860603 1.0944693-4.2335526 1.7639803-1.5474913.6695109-3.1270559 1.4873563-4.3939145 2.790296-.432977.4450044-.8218542.9421261-1.1546052 1.5074014H2.3355263c.216489-.7937906.5332029-1.4432566 1.0263158-1.9564145.7096009-.7376645 1.6998355-1.3109583 2.790296-1.7960526 1.0904606-.4850944 2.2490746-.8699628 3.303454-1.4111843 1.0543794-.5412214 2.0606502-1.2588399 2.5016447-2.4695723.0360812-.0922083.0561272-.1884254.0641448-.2886513.1042357-1.2708674.1282895-2.1167764.1282895-3.1430921.0080186-.3648235-.1723893-.7055922-.4810856-.8980264-.0320723-.0360811-.1002259-.1082445-.1603618-.1924342-.1202709-.1723892-.2766239-.412932-.4169408-.7055921-.2806327-.5813114-.5251853-1.3350121-.609375-1.9564145-.0681535-.4570307-.4369858-.8138366-.8980263-.8659539-.0761722-.1042347-.2325242-.4490132-.3207237-1.1546053-.0320724-.2926601.0240548-.4610405.0641447-.5452302.4169408-.2846426.5652753-.825863.3527961-1.2828948-.8499178-1.9243421-.7015833-3.9288651.2886513-5.4523026.9100537-1.4031656 2.6780428-2.3733553 5.2919408-2.5337171z" fill="#000" fill-rule="nonzero"/>
</svg>
