<svg width="52" height="39" xmlns="http://www.w3.org/2000/svg"><path d="M27.544 0c-4.574 0-7.917 1.808-9.685 4.49a8.528 8.528 0 0 0-.866 1.732l-.257-.513a1.024 1.024 0 0 0-.898-.577c-3.552 0-6.206 1.443-7.601 3.592-1.275 1.96-1.351 4.426-.545 6.735-.065.104-.2.16-.257.289-.192.429-.297.97-.224 1.603v.032c.116.934.352 1.604.737 2.117.165.216.425.216.642.353.152.762.368 1.52.673 2.149.18.376.373.701.577.994.069.1.185.168.257.256 0 .786-.028 1.492-.096 2.406-.185.469-.634.882-1.476 1.315-.861.44-2.016.85-3.207 1.379-1.19.53-2.461 1.17-3.464 2.213C.852 31.607.143 33.067.026 34.927a1.031 1.031 0 0 0 1.027 1.09h6.382a9.46 9.46 0 0 0-.32 1.893A1.031 1.031 0 0 0 8.14 39h35.087a1.025 1.025 0 0 0 1.026-1.09 9.472 9.472 0 0 0-.353-1.989h6.415a1.025 1.025 0 0 0 1.026-1.09c-.116-1.857-.834-3.32-1.828-4.362-.994-1.043-2.221-1.684-3.4-2.213-1.178-.53-2.32-.938-3.175-1.38-.814-.42-1.247-.853-1.443-1.314a28.247 28.247 0 0 1-.096-2.406c.068-.088.188-.16.256-.256.205-.289.37-.622.545-.995a7.843 7.843 0 0 0 .61-2.052c.208-.133.453-.145.61-.353.384-.513.62-1.183.737-2.117a3.213 3.213 0 0 0-.16-1.54c-.049-.124-.225-.2-.29-.32.225-.525.482-1.022.546-1.668.092-.958.016-2.032-.256-3.079s-.746-2.084-1.572-2.886c-.666-.65-1.604-1.03-2.662-1.187l-.417-.962a1.03 1.03 0 0 0-.93-.61c-1.42 0-2.93.14-4.33.578-.365-.81-.846-1.58-1.507-2.213-.878-.846-2.113-1.351-3.528-1.508L28.475.61a1.03 1.03 0 0 0-.93-.609zm-.673 2.117.545 1.186c.164.37.53.606.93.61 1.275 0 2.141.405 2.823 1.058.681.654 1.166 1.584 1.443 2.63a9.165 9.165 0 0 1 .256 3.143c-.096.954-.42 1.724-.609 1.957a1.026 1.026 0 0 0 .385 1.572c-.016-.009 0-.009.032.063.056.133.116.43.096.802-.004.032.004.032 0 .064-.14.85-.38 1.355-.545 1.572-.084.112-.144.148-.16.16-.485.04-.87.417-.93.898-.085.766-.381 1.764-.738 2.534-.177.385-.389.71-.545.93-.12.164-.24.257-.225.257-.345.18-.553.54-.545.93 0 1.335-.008 2.405.096 3.977.008.1.028.196.064.288.55 1.444 1.788 2.314 3.143 2.983 1.355.67 2.887 1.17 4.33 1.796 1.443.626 2.786 1.38 3.753 2.373.75.77 1.206 1.789 1.475 3.047H9.424c.268-1.258.725-2.277 1.475-3.047.966-.994 2.31-1.747 3.752-2.373 1.444-.625 2.975-1.126 4.33-1.796 1.355-.67 2.594-1.54 3.143-2.983.036-.092.056-.188.064-.288.105-1.476.097-2.642.097-3.977.008-.39-.2-.75-.546-.93 0 0-.008-.012-.032-.032-.008-.004-.02.004-.032 0a1.595 1.595 0 0 1-.192-.225 6.176 6.176 0 0 1-.578-.93c-.376-.75-.685-1.7-.77-2.502a1.03 1.03 0 0 0-.833-.898c-.1-.02-.626.004-.802-1.764-.072-.79.3-1.022.257-.994.429-.273.593-.818.384-1.283-.657-1.511-.866-3.07-.641-4.522.233-.26.32-.625.225-.962a6.841 6.841 0 0 1 .833-1.796c1.28-1.937 3.685-3.356 7.313-3.528zM37.775 7.28l.321.706c.153.38.521.633.93.641.914 0 1.484.277 1.957.738.473.461.822 1.147 1.026 1.924a6.94 6.94 0 0 1 .192 2.342c-.068.717-.312 1.303-.416 1.443-.18.233-.249.53-.193.818.052.289.229.541.481.69.036.092.064.292.032.545-.088.705-.244 1.05-.32 1.154-.482.06-.858.445-.898.93-.037.53-.281 1.267-.546 1.828a4.76 4.76 0 0 1-.385.674c-.088.124-.168.22-.16.224a1.027 1.027 0 0 0-.449.834c0 1.13-.012 2 .096 3.176.012.088.032.172.064.256.437 1.207 1.424 1.96 2.47 2.502 1.046.541 2.225.926 3.303 1.411 1.079.485 2.057 1.058 2.759 1.796.489.513.813 1.163 1.026 1.956h-6.03a7.964 7.964 0 0 0-1.09-1.41c-1.267-1.304-2.847-2.122-4.394-2.791-1.548-.67-3.07-1.187-4.234-1.764-1.122-.557-1.792-1.15-2.084-1.828a48.679 48.679 0 0 1-.096-3.24c.108-.124.284-.216.384-.352.261-.365.518-.774.738-1.251.385-.834.613-1.804.77-2.758.28-.169.617-.16.834-.45.449-.597.757-1.423.93-2.565a.479.479 0 0 0 .032-.064c.064-.706-.036-1.335-.257-1.86-.056-.133-.244-.165-.32-.29a6.638 6.638 0 0 0 .641-2.308 10.974 10.974 0 0 0-.16-3.272c.922-.252 2.004-.344 3.046-.385zm-22.514.032.385.738c.144.309.433.525.77.577-.137 1.492.096 3.04.64 4.523-.388.533-.7 1.246-.609 2.245.18 1.792.983 2.642 1.764 3.11.165.983.461 1.977.866 2.791.237.473.497.894.77 1.25.1.133.277.205.385.322 0 1.086-.02 2.06-.096 3.207-.293.677-.962 1.27-2.085 1.828-1.163.577-2.686 1.094-4.234 1.764-1.547.67-3.127 1.487-4.393 2.79a7.897 7.897 0 0 0-1.155 1.508H2.336c.216-.794.533-1.444 1.026-1.957.71-.737 1.7-1.31 2.79-1.796 1.09-.485 2.25-.87 3.304-1.411 1.054-.541 2.06-1.259 2.501-2.47.036-.092.056-.188.064-.288a34.92 34.92 0 0 0 .129-3.143 1.027 1.027 0 0 0-.481-.898c-.032-.036-.1-.109-.16-.193a5.05 5.05 0 0 1-.418-.705c-.28-.582-.525-1.335-.61-1.957a1.025 1.025 0 0 0-.897-.866c-.076-.104-.233-.449-.32-1.154-.033-.293.023-.461.063-.546.417-.284.566-.825.353-1.282-.85-1.925-.701-3.93.289-5.453.91-1.403 2.678-2.373 5.292-2.534z"/></svg>