<svg width="40" height="38" xmlns="http://www.w3.org/2000/svg"><path d="M2 12h1.832a1 1 0 0 0 .326 0h20.69a1 1 0 0 0 .332 0h6.668a1 1 0 0 0 .332 0h3.652a1 1 0 0 0 .326 0H38v24.016H2V12zm1-2H1a1 1 0 0 0-1 1v25.881a1 1 0 0 0 1 1h38a1 1 0 0 0 1-1V11a1 1 0 0 0-1-1H3zm13 5a1 1 0 1 0 0 2h8a1 1 0 1 0 0-2h-8z"/><path d="m10.178 3.327-1.932-.518a1 1 0 0 0-1.225.707l-1.976 7.366c-.076.284 2.188 1.751 6.465-1.054.714-.468 1.865-2.175 3.455-5.123l-4.787-1.378zM8.694 5l1.77.474a1 1 0 0 0 .315.085l3.714.995-3.714 3.934-3.813.511L8.694 5z"/><path d="m18.598 1.5-1.732-1A1 1 0 0 0 15.5.866l-5.544 9.512c-.184.318 7.673.318 23.571 0L18.598 1.5zm-1.866 1.232 1.587.916a1 1 0 0 0 .282.163l3.33 1.923 8.483 4.813-18.537.444 4.855-8.259z"/></svg>