<svg width="43" height="39" xmlns="http://www.w3.org/2000/svg"><path d="M28.16.778a.877.877 0 00-.155.052H14.03a.84.84 0 00-.338.13L1.245 8.427a.83.83 0 00-.363 1.01L4.2 17.738a.832.832 0 001.063.466l3.864-1.452v21.42c0 .456.372.829.83.829H33.19c.458 0 .83-.373.83-.83V16.751l3.864 1.452a.832.832 0 001.063-.466l3.32-8.298a.83.83 0 00-.364-1.011L29.457.959a.856.856 0 00-.414-.13h-.493a.835.835 0 00-.39-.051zM14.315 2.489h.26l6.378 7.183a.837.837 0 00.622.282.837.837 0 00.623-.282l6.379-7.183h.26l8.79 5.264-2.075 5.16a.836.836 0 00.062.876.837.837 0 00.813.33.832.832 0 00.655-.583l1.97-4.901 1.401.83-2.749 6.897-4.226-1.581a.831.831 0 00-1.115.778V37.34H10.787V15.56a.828.828 0 00-1.115-.778l-4.227 1.581-2.748-6.897 1.4-.83 1.97 4.9c.092.306.344.53.656.584a.837.837 0 00.813-.33.836.836 0 00.062-.875l-2.075-5.16 8.79-5.265zm2.463 0h9.595l-4.798 5.394-4.797-5.394z"/></svg>