<svg width="43" height="39" xmlns="http://www.w3.org/2000/svg">
  <path d="M28.1609043.7779255c-.0518617.0129655-.1069646.029172-.1555852.0518617H14.0285904c-.11993.0194486-.2366188.061586-.337101.1296543L1.2446808 8.4275266C.891373 8.6317323.7390293 9.0595913.881649 9.4388298l3.319149 8.2978723c.1685505.4181348.641789.6255816 1.0631649.4667553l3.8636968-1.4521276v21.418883c0 .457031.3727562.8297872.8297872.8297872h23.2340426c.457031 0 .8297872-.3727562.8297872-.8297872v-21.418883l3.8636968 1.4521276c.4213767.1588263.8946144-.0486205 1.0631649-.4667553l3.3191489-8.2978723c.1426197-.3792385-.0097242-.8070975-.3630319-1.0113032L29.4574468.9594415c-.1231711-.0777926-.2690328-.1231711-.4148936-.1296543h-.4926862c-.1231711-.0486205-.2560673-.064827-.3889627-.0518617zM14.3138298 2.4893617h.2593085l6.3789894 7.1828458c.1588262.1782748.3857216.2819982.6223404.2819982.2366188 0 .4635142-.1037234.6223404-.2819982l6.3789894-7.1828458h.2593085l8.7905585 5.2639628-2.0744681 5.1602393c-.1458608.2787571-.1231711.6190993.061586.8751667.1879982.2560665.5024104.3824796.8135806.3306179.3111703-.0551028.5639956-.2787562.6547536-.5834441l1.9707447-4.9009309 1.400266.8297872-2.7486703 6.8976064-4.2267287-1.5817819c-.2528254-.0939991-.5380647-.0551028-.758477.0972411-.2236542.1555851-.3565496.4084105-.3565496.6806844v21.7819149H10.787234V15.5585106c0-.2722739-.1328954-.5250993-.3565487-.6806844-.2204123-.1523439-.5056516-.1912402-.7584779-.0972411L5.4454788 16.362367 2.6968085 9.4647606l1.400266-.8297872 1.9707447 4.9009309c.090758.3046879.3435841.5283413.6547544.5834441.3111702.0518617.6255815-.0745514.8135798-.3306179.184758-.2560674.2074468-.5964096.061586-.8751667L5.5232713 7.7533245l8.7905585-5.2639628zm2.4634308 0h9.5944149l-4.7972074 5.393617-4.7972075-5.393617z" fill="#000" fill-rule="nonzero"/>
</svg>
