<svg width="40" height="40" xmlns="http://www.w3.org/2000/svg"><path d="M32.914 0a.863.863 0 00-.631.289c-.337.132-.71.2-.955.438-.41.39-.76.87-1.138 1.416-.747 1.09-1.586 2.453-2.785 3.801-2.395 2.694-6.141 5.36-13.492 5.36-.034 0-.064 0-.098.004H4.348c-2.388 0-4.341 1.956-4.341 4.344V20c0 1.844 1.172 3.42 2.805 4.046a.82.82 0 00.164.142c.285.2 1.042 1.563 1.664 3.801.618 2.242 1.25 5.343 1.973 9.12.14.727.38 1.458.945 2.021.564.568 1.403.87 2.394.87h2.901c.802 0 1.529-.156 2.065-.652.54-.493.734-1.223.734-1.957 0-1.528-.91-2.581-1.919-3.587.16.16-.061-.136-.166-.638-.106-.506-.2-1.237-.279-2.15-.143-1.644-.214-3.958-.23-6.672h.706a.989.989 0 00.265.004h.03c7.381 0 11.094 2.86 13.475 5.767 1.189 1.454 2.021 2.928 2.765 4.1.37.588.713 1.1 1.124 1.522.411.421.955.785 1.62.785h.065c.34 0 .683-.18.897-.394.21-.218.346-.466.465-.761.245-.591.431-1.413.601-2.69.269-2.008.47-5.194.544-10.068h.431a3.859 3.859 0 003.845-3.502.875.875 0 00.068-.337c0-2.15-1.735-3.987-3.913-3.987h-.431c-.078-5.35-.323-8.835-.652-10.958-.197-1.28-.408-2.106-.673-2.697-.132-.292-.275-.537-.489-.748-.214-.207-.544-.38-.887-.38zm-.207 1.868c.153.34.357 1.04.54 2.222.367 2.398.666 6.718.666 14.17 0 7.457-.245 11.784-.567 14.186-.156 1.182-.336 1.875-.476 2.218-.057-.03-.071-.01-.204-.143-.237-.245-.55-.683-.9-1.236-.703-1.111-1.586-2.68-2.887-4.27-2.524-3.08-6.712-6.196-14.1-6.39v-9.602c7.239-.214 11.396-3.077 13.927-5.924 1.314-1.48 2.211-2.941 2.921-3.97.353-.514.662-.918.9-1.145.109-.106.122-.082.18-.116zM4.347 13.04h8.7v9.572h-.707a1.043 1.043 0 00-.18-.017c-.05.004-.105.007-.153.017h-7.66A2.6 2.6 0 011.733 20v-4.348a2.6 2.6 0 012.616-2.612zm31.288 3.482h.411c1.186 0 2.174 1.04 2.174 2.248 0 1.21-.937 2.1-2.174 2.1h-.418c.01-.867.024-1.641.024-2.61 0-.645-.013-1.14-.017-1.738zm-30.41 7.822h6.093c.014 2.748.088 5.096.234 6.818.082.958.184 1.739.313 2.357.129.618.176 1.053.638 1.515.965.961 1.41 1.48 1.41 2.357 0 .462-.088.602-.17.676-.081.075-.32.194-.89.194h-2.9c-.68 0-.958-.15-1.162-.353-.2-.204-.364-.568-.469-1.125-.723-3.79-1.359-6.912-2.007-9.256-.36-1.294-.68-2.35-1.09-3.183z"/></svg>