<svg width="40" height="38" xmlns="http://www.w3.org/2000/svg">
	<g>
    <path d="M2 12h1.8320312a1.0000998 1.0000998 0 0 0 .3261719 0H24.847656a1.0001 1.0001 0 0 0 .332032 0h6.667968a1.0001 1.0001 0 0 0 .332032 0h3.652343a1.0000999 1.0000999 0 0 0 .326172 0H38v24.0155228H2V12zm1-2H1c-.5522619.0000552-.9999448.4477381-1 1v25.8814852c.0000552.5522619.4477381.9999448 1 1h38c.5522619-.0000552.9999448-.4477381 1-1V11c-.0000552-.5522619-.4477381-.9999448-1-1H3zm13 5c-.3606359-.0051003-.6960814.1843753-.8778877.4958728-.1818064.3114976-.1818064.6967568 0 1.0082543.1818063.3114976.5172518.5009732.8778877.4958729h8c.3606359.0051003.6960814-.1843753.8778877-.4958728.1818064-.3114976.1818064-.6967568 0-1.0082543C24.6960814 15.1843753 24.3606359 14.9948997 24 15h-8z"/>
    <path d="M10.1775829 3.3269677l-1.9318517-.517638c-.5334583-.1428826-1.0817556.173677-1.2247448.7071067l-1.9759655 7.3651652c-.0761949.2844768 2.1883821 1.751888 6.4654275-1.053391.713271-.4678287 1.8646634-2.175514 3.454177-5.1230557L10.177583 3.3269677zm-1.483564 1.6730326l1.7696063.4741646a1.0000998 1.0000998 0 0 0 .3150579.0844195l3.7146637.9953412-3.7146637 3.9340948-3.812738.5113247L8.694019 5.0000003z"/>
    <path d="M18.5980762 1.4999999l-1.7320508-1C16.3877249.2239168 15.7761787.38778 15.5.8660253L9.9556255 10.37751c-.1840554.318867 7.6730893.3188669 23.571434 0L18.5980762 1.4999999zm-1.8660254 1.2320508l1.5865855.9160156a1.0000998 1.0000998 0 0 0 .2824732.163086l3.3304764 1.9228514 8.4819866 4.813408-18.5364318.443222 4.85491-8.258583z"/>
  </g>
</svg>
