<?xml version="1.0" encoding="UTF-8"?>
<svg xmlns="http://www.w3.org/2000/svg" xmlns:xlink="http://www.w3.org/1999/xlink" viewBox="0 0 32 32" version="1.1" fill="#000000"><g id="surface1" fill="#000000"><path style=" " d="M 16 28.15625 L 15.5 27.863281 C 14.988281 27.570313 3 20.53125 3 13 C 3 9.140625 6.140625 6 10 6 C 12.542969 6 14.773438 7.363281 16 9.398438 C 17.226563 7.363281 19.457031 6 22 6 C 25.859375 6 29 9.140625 29 13 C 29 20.53125 17.011719 27.570313 16.5 27.863281 Z M 10 8 C 7.242188 8 5 10.242188 5 13 C 5 18.605469 13.785156 24.445313 16 25.828125 C 18.214844 24.445313 27 18.605469 27 13 C 27 10.242188 24.757813 8 22 8 C 19.242188 8 17 10.242188 17 13 L 15 13 C 15 10.242188 12.757813 8 10 8 Z " fill="#000000"/></g></svg>
