<svg xmlns="http://www.w3.org/2000/svg" width="48" height="47.97" viewBox="0 0 136.06 135.97"><path d="M127.19 64.53a20.89 20.89 0 0 0 0-29.55l-.48-.47-.29-.3L92.2 0 67.32 24.88 42.44 0H11.32l90.19 90.19m4.67-45.1a6.59 6.59 0 0 1 0 9.33l-4.67 4.67-10-10-8.66-8.7 9.33-9.33Z"/><path d="m135.09 90.85-18 18 18.74 18.74a12.74 12.74 0 0 1-12.07 8.37H113.1l-11.57-11.57-11.56 11.58H58.86l27.12-27.12-18-18-17.76-17.76c-6.83 7-26.37 26.37-26.37 26.37-1.55 1.56 0 3.11 1.56 1.56l9.27-9.27c21.76-21.77 54.41 10.91 32.64 32.65l-11.6 11.57H24.67l27.11-27.12c1.55-1.56 0-3.11-1.81-1.12l-9 8.84c-23.07 23.09-55.55-9.79-33.78-31.56l43-43 48.89 48.84 2.45 2.46 34.53-34.53v31.1Z"/></svg>