<svg xmlns="http://www.w3.org/2000/svg" width="48px" height="47.97px" viewBox="0 0 136.06 135.97"><title>wdpln-icon</title><path d="M127.87,64.87a20.89,20.89,0,0,0,0-29.55l-0.48-.47h0l-0.29-.3L92.88,0.34,68,25.22,43.12,0.34H12l90.19,90.19m4.67-45.1a6.59,6.59,0,0,1,0,9.33l-4.67,4.67-10-10-8.66-8.7,9.33-9.33Z" transform="translate(-0.68 -0.34)"/><path d="M135.77,91.19l-18,18,18.74,18.74a12.74,12.74,0,0,1-12.07,8.37H113.78l-11.57-11.57L90.65,136.31H59.54l27.12-27.12-18-18L50.9,73.43c-6.83,7-26.37,26.37-26.37,26.37-1.55,1.56,0,3.11,1.56,1.56l9.27-9.27C57.12,70.32,89.77,103,68,124.74L56.4,136.31H25.35l27.11-27.12c1.55-1.56,0-3.11-1.81-1.12l-9,8.84C18.58,140-13.9,107.12,7.87,85.35l43-43L99.76,91.19l2.45,2.46,34.53-34.53v31.1Z" transform="translate(-0.68 -0.34)"/></svg>
